<mxfile host="65bd71144e">
    <diagram id="2mhbYWD3RiSnc6HO7L6a" name="下り通信">
        <mxGraphModel dx="992" dy="740" grid="1" gridSize="10" guides="1" tooltips="1" connect="1" arrows="1" fold="1" page="1" pageScale="1" pageWidth="1169" pageHeight="827" background="#FFFFFF" math="0" shadow="0">
            <root>
                <mxCell id="0"/>
                <mxCell id="1" parent="0"/>
                <mxCell id="17" value="Availability Zone" style="fillColor=none;strokeColor=#147EBA;dashed=1;verticalAlign=top;fontStyle=0;fontColor=#147EBA;" parent="1" vertex="1">
                    <mxGeometry x="110" y="330" width="500" height="120" as="geometry"/>
                </mxCell>
                <mxCell id="14" value="Availability Zone" style="fillColor=none;strokeColor=#147EBA;dashed=1;verticalAlign=top;fontStyle=0;fontColor=#147EBA;" parent="1" vertex="1">
                    <mxGeometry x="110" y="200" width="500" height="120" as="geometry"/>
                </mxCell>
                <mxCell id="12" value="Availability Zone" style="fillColor=none;strokeColor=#147EBA;dashed=1;verticalAlign=top;fontStyle=0;fontColor=#147EBA;" parent="1" vertex="1">
                    <mxGeometry x="110" y="70" width="500" height="120" as="geometry"/>
                </mxCell>
                <mxCell id="2" value="VPC" style="points=[[0,0],[0.25,0],[0.5,0],[0.75,0],[1,0],[1,0.25],[1,0.5],[1,0.75],[1,1],[0.75,1],[0.5,1],[0.25,1],[0,1],[0,0.75],[0,0.5],[0,0.25]];outlineConnect=0;gradientColor=none;html=1;whiteSpace=wrap;fontSize=12;fontStyle=0;container=0;pointerEvents=0;collapsible=0;recursiveResize=0;shape=mxgraph.aws4.group;grIcon=mxgraph.aws4.group_vpc;strokeColor=#248814;fillColor=none;verticalAlign=top;align=left;spacingLeft=30;fontColor=#AAB7B8;dashed=0;" parent="1" vertex="1">
                    <mxGeometry x="80" y="40" width="260" height="440" as="geometry"/>
                </mxCell>
                <mxCell id="10" value="Corporate data center" style="points=[[0,0],[0.25,0],[0.5,0],[0.75,0],[1,0],[1,0.25],[1,0.5],[1,0.75],[1,1],[0.75,1],[0.5,1],[0.25,1],[0,1],[0,0.75],[0,0.5],[0,0.25]];outlineConnect=0;gradientColor=none;html=1;whiteSpace=wrap;fontSize=12;fontStyle=0;container=1;pointerEvents=0;collapsible=0;recursiveResize=0;shape=mxgraph.aws4.group;grIcon=mxgraph.aws4.group_corporate_data_center;strokeColor=#5A6C86;fillColor=none;verticalAlign=top;align=left;spacingLeft=30;fontColor=#5A6C86;dashed=0;" parent="1" vertex="1">
                    <mxGeometry x="679" y="40" width="191" height="440" as="geometry"/>
                </mxCell>
                <mxCell id="quVh0VFz0NKPyISK7NSU-50" value="On-premise" style="sketch=0;outlineConnect=0;fontColor=#232F3E;gradientColor=none;fillColor=#232F3D;strokeColor=none;dashed=0;verticalLabelPosition=bottom;verticalAlign=top;align=center;html=1;fontSize=12;fontStyle=0;aspect=fixed;pointerEvents=1;shape=mxgraph.aws4.traditional_server;" parent="10" vertex="1">
                    <mxGeometry x="124.53999999999996" y="120" width="21.92" height="38" as="geometry"/>
                </mxCell>
                <mxCell id="quVh0VFz0NKPyISK7NSU-51" value="On-premise" style="sketch=0;outlineConnect=0;fontColor=#232F3E;gradientColor=none;fillColor=#232F3D;strokeColor=none;dashed=0;verticalLabelPosition=bottom;verticalAlign=top;align=center;html=1;fontSize=12;fontStyle=0;aspect=fixed;pointerEvents=1;shape=mxgraph.aws4.traditional_server;" parent="10" vertex="1">
                    <mxGeometry x="124.53999999999996" y="320" width="21.92" height="38" as="geometry"/>
                </mxCell>
                <mxCell id="quVh0VFz0NKPyISK7NSU-44" value="FIrewall" style="sketch=0;outlineConnect=0;fontColor=#232F3E;gradientColor=none;fillColor=#232F3D;strokeColor=none;dashed=0;verticalLabelPosition=bottom;verticalAlign=top;align=center;html=1;fontSize=12;fontStyle=0;aspect=fixed;pointerEvents=1;shape=mxgraph.aws4.generic_firewall;labelBackgroundColor=default;" parent="10" vertex="1">
                    <mxGeometry x="31" y="217" width="35.45" height="30" as="geometry"/>
                </mxCell>
                <mxCell id="quVh0VFz0NKPyISK7NSU-52" style="edgeStyle=orthogonalEdgeStyle;html=1;" parent="10" source="quVh0VFz0NKPyISK7NSU-44" target="quVh0VFz0NKPyISK7NSU-51" edge="1">
                    <mxGeometry relative="1" as="geometry">
                        <Array as="points">
                            <mxPoint x="91" y="232"/>
                            <mxPoint x="91" y="339"/>
                        </Array>
                    </mxGeometry>
                </mxCell>
                <mxCell id="quVh0VFz0NKPyISK7NSU-53" style="edgeStyle=orthogonalEdgeStyle;html=1;" parent="10" source="quVh0VFz0NKPyISK7NSU-44" target="quVh0VFz0NKPyISK7NSU-50" edge="1">
                    <mxGeometry relative="1" as="geometry">
                        <Array as="points">
                            <mxPoint x="91" y="232"/>
                            <mxPoint x="91" y="139"/>
                        </Array>
                    </mxGeometry>
                </mxCell>
                <mxCell id="13" value="Private subnet" style="points=[[0,0],[0.25,0],[0.5,0],[0.75,0],[1,0],[1,0.25],[1,0.5],[1,0.75],[1,1],[0.75,1],[0.5,1],[0.25,1],[0,1],[0,0.75],[0,0.5],[0,0.25]];outlineConnect=0;gradientColor=none;html=1;whiteSpace=wrap;fontSize=12;fontStyle=0;container=1;pointerEvents=0;collapsible=0;recursiveResize=0;shape=mxgraph.aws4.group;grIcon=mxgraph.aws4.group_security_group;grStroke=0;strokeColor=#147EBA;fillColor=#E6F2F8;verticalAlign=top;align=left;spacingLeft=30;fontColor=#147EBA;dashed=0;" parent="1" vertex="1">
                    <mxGeometry x="120" y="100" width="180" height="80" as="geometry"/>
                </mxCell>
                <mxCell id="51" value="ENI" style="sketch=0;outlineConnect=0;fontColor=#232F3E;gradientColor=none;fillColor=#4D27AA;strokeColor=none;dashed=0;verticalLabelPosition=bottom;verticalAlign=top;align=center;html=1;fontSize=12;fontStyle=0;aspect=fixed;pointerEvents=1;shape=mxgraph.aws4.elastic_network_interface;" parent="13" vertex="1">
                    <mxGeometry x="140" y="25" width="30" height="30" as="geometry"/>
                </mxCell>
                <mxCell id="15" value="Private subnet" style="points=[[0,0],[0.25,0],[0.5,0],[0.75,0],[1,0],[1,0.25],[1,0.5],[1,0.75],[1,1],[0.75,1],[0.5,1],[0.25,1],[0,1],[0,0.75],[0,0.5],[0,0.25]];outlineConnect=0;gradientColor=none;html=1;whiteSpace=wrap;fontSize=12;fontStyle=0;container=1;pointerEvents=0;collapsible=0;recursiveResize=0;shape=mxgraph.aws4.group;grIcon=mxgraph.aws4.group_security_group;grStroke=0;strokeColor=#147EBA;fillColor=#E6F2F8;verticalAlign=top;align=left;spacingLeft=30;fontColor=#147EBA;dashed=0;" parent="1" vertex="1">
                    <mxGeometry x="120" y="230" width="180" height="80" as="geometry"/>
                </mxCell>
                <mxCell id="9" value="VPC Endpoint" style="sketch=0;outlineConnect=0;fontColor=#232F3E;gradientColor=none;fillColor=#4D27AA;strokeColor=none;dashed=0;verticalLabelPosition=bottom;verticalAlign=top;align=center;html=1;fontSize=12;fontStyle=0;aspect=fixed;pointerEvents=1;shape=mxgraph.aws4.endpoints;" parent="15" vertex="1">
                    <mxGeometry x="60" y="27" width="30" height="30" as="geometry"/>
                </mxCell>
                <mxCell id="20" style="edgeStyle=none;html=1;dashed=1;" parent="15" source="9" edge="1">
                    <mxGeometry relative="1" as="geometry">
                        <mxPoint x="140" y="42" as="targetPoint"/>
                    </mxGeometry>
                </mxCell>
                <mxCell id="18" value="Private subnet" style="points=[[0,0],[0.25,0],[0.5,0],[0.75,0],[1,0],[1,0.25],[1,0.5],[1,0.75],[1,1],[0.75,1],[0.5,1],[0.25,1],[0,1],[0,0.75],[0,0.5],[0,0.25]];outlineConnect=0;gradientColor=none;html=1;whiteSpace=wrap;fontSize=12;fontStyle=0;container=1;pointerEvents=0;collapsible=0;recursiveResize=0;shape=mxgraph.aws4.group;grIcon=mxgraph.aws4.group_security_group;grStroke=0;strokeColor=#147EBA;fillColor=#E6F2F8;verticalAlign=top;align=left;spacingLeft=30;fontColor=#147EBA;dashed=0;" parent="1" vertex="1">
                    <mxGeometry x="120" y="360" width="180" height="80" as="geometry"/>
                </mxCell>
                <mxCell id="46" value="ENI" style="sketch=0;outlineConnect=0;fontColor=#232F3E;gradientColor=none;fillColor=#4D27AA;strokeColor=none;dashed=0;verticalLabelPosition=bottom;verticalAlign=top;align=center;html=1;fontSize=12;fontStyle=0;aspect=fixed;pointerEvents=1;shape=mxgraph.aws4.elastic_network_interface;" parent="18" vertex="1">
                    <mxGeometry x="140" y="27" width="30" height="30" as="geometry"/>
                </mxCell>
                <mxCell id="21" style="edgeStyle=orthogonalEdgeStyle;html=1;dashed=1;" parent="1" source="9" edge="1">
                    <mxGeometry relative="1" as="geometry">
                        <Array as="points">
                            <mxPoint x="230" y="272"/>
                            <mxPoint x="230" y="140"/>
                        </Array>
                        <mxPoint x="260" y="140" as="targetPoint"/>
                    </mxGeometry>
                </mxCell>
                <mxCell id="22" style="edgeStyle=orthogonalEdgeStyle;html=1;dashed=1;" parent="1" source="9" edge="1">
                    <mxGeometry relative="1" as="geometry">
                        <Array as="points">
                            <mxPoint x="230" y="270"/>
                            <mxPoint x="230" y="402"/>
                        </Array>
                        <mxPoint x="260" y="402" as="targetPoint"/>
                    </mxGeometry>
                </mxCell>
                <mxCell id="26" value="Bridge VPC" style="points=[[0,0],[0.25,0],[0.5,0],[0.75,0],[1,0],[1,0.25],[1,0.5],[1,0.75],[1,1],[0.75,1],[0.5,1],[0.25,1],[0,1],[0,0.75],[0,0.5],[0,0.25]];outlineConnect=0;gradientColor=none;html=1;whiteSpace=wrap;fontSize=12;fontStyle=0;container=0;pointerEvents=0;collapsible=0;recursiveResize=0;shape=mxgraph.aws4.group;grIcon=mxgraph.aws4.group_vpc;strokeColor=#248814;fillColor=none;verticalAlign=top;align=left;spacingLeft=30;fontColor=#AAB7B8;dashed=0;" parent="1" vertex="1">
                    <mxGeometry x="380" y="40" width="260" height="440" as="geometry"/>
                </mxCell>
                <mxCell id="27" value="Private subnet" style="points=[[0,0],[0.25,0],[0.5,0],[0.75,0],[1,0],[1,0.25],[1,0.5],[1,0.75],[1,1],[0.75,1],[0.5,1],[0.25,1],[0,1],[0,0.75],[0,0.5],[0,0.25]];outlineConnect=0;gradientColor=none;html=1;whiteSpace=wrap;fontSize=12;fontStyle=0;container=1;pointerEvents=0;collapsible=0;recursiveResize=0;shape=mxgraph.aws4.group;grIcon=mxgraph.aws4.group_security_group;grStroke=0;strokeColor=#147EBA;fillColor=#E6F2F8;verticalAlign=top;align=left;spacingLeft=30;fontColor=#147EBA;dashed=0;" parent="1" vertex="1">
                    <mxGeometry x="420" y="100" width="180" height="80" as="geometry"/>
                </mxCell>
                <mxCell id="52" value="ENI" style="sketch=0;outlineConnect=0;fontColor=#232F3E;gradientColor=none;fillColor=#4D27AA;strokeColor=none;dashed=0;verticalLabelPosition=bottom;verticalAlign=top;align=center;html=1;fontSize=12;fontStyle=0;aspect=fixed;pointerEvents=1;shape=mxgraph.aws4.elastic_network_interface;" parent="27" vertex="1">
                    <mxGeometry x="70" y="25" width="30" height="30" as="geometry"/>
                </mxCell>
                <mxCell id="29" value="Private subnet" style="points=[[0,0],[0.25,0],[0.5,0],[0.75,0],[1,0],[1,0.25],[1,0.5],[1,0.75],[1,1],[0.75,1],[0.5,1],[0.25,1],[0,1],[0,0.75],[0,0.5],[0,0.25]];outlineConnect=0;gradientColor=none;html=1;whiteSpace=wrap;fontSize=12;fontStyle=0;container=1;pointerEvents=0;collapsible=0;recursiveResize=0;shape=mxgraph.aws4.group;grIcon=mxgraph.aws4.group_security_group;grStroke=0;strokeColor=#147EBA;fillColor=#E6F2F8;verticalAlign=top;align=left;spacingLeft=30;fontColor=#147EBA;dashed=0;" parent="1" vertex="1">
                    <mxGeometry x="420" y="230" width="180" height="80" as="geometry"/>
                </mxCell>
                <mxCell id="53" value="ENI" style="sketch=0;outlineConnect=0;fontColor=#232F3E;gradientColor=none;fillColor=#4D27AA;strokeColor=none;dashed=0;verticalLabelPosition=bottom;verticalAlign=top;align=center;html=1;fontSize=12;fontStyle=0;aspect=fixed;pointerEvents=1;shape=mxgraph.aws4.elastic_network_interface;" parent="29" vertex="1">
                    <mxGeometry x="70" y="28" width="30" height="30" as="geometry"/>
                </mxCell>
                <mxCell id="32" value="Private subnet" style="points=[[0,0],[0.25,0],[0.5,0],[0.75,0],[1,0],[1,0.25],[1,0.5],[1,0.75],[1,1],[0.75,1],[0.5,1],[0.25,1],[0,1],[0,0.75],[0,0.5],[0,0.25]];outlineConnect=0;gradientColor=none;html=1;whiteSpace=wrap;fontSize=12;fontStyle=0;container=1;pointerEvents=0;collapsible=0;recursiveResize=0;shape=mxgraph.aws4.group;grIcon=mxgraph.aws4.group_security_group;grStroke=0;strokeColor=#147EBA;fillColor=#E6F2F8;verticalAlign=top;align=left;spacingLeft=30;fontColor=#147EBA;dashed=0;" parent="1" vertex="1">
                    <mxGeometry x="420" y="360" width="180" height="80" as="geometry"/>
                </mxCell>
                <mxCell id="54" value="ENI" style="sketch=0;outlineConnect=0;fontColor=#232F3E;gradientColor=none;fillColor=#4D27AA;strokeColor=none;dashed=0;verticalLabelPosition=bottom;verticalAlign=top;align=center;html=1;fontSize=12;fontStyle=0;aspect=fixed;pointerEvents=1;shape=mxgraph.aws4.elastic_network_interface;" parent="32" vertex="1">
                    <mxGeometry x="70" y="27" width="30" height="30" as="geometry"/>
                </mxCell>
                <mxCell id="38" style="edgeStyle=none;html=1;startArrow=none;" parent="1" source="37" edge="1">
                    <mxGeometry relative="1" as="geometry">
                        <mxPoint x="490" y="272.2459016393443" as="targetPoint"/>
                    </mxGeometry>
                </mxCell>
                <mxCell id="39" style="edgeStyle=orthogonalEdgeStyle;html=1;" parent="1" target="37" edge="1">
                    <mxGeometry relative="1" as="geometry">
                        <Array as="points">
                            <mxPoint x="320" y="140"/>
                            <mxPoint x="320" y="273"/>
                        </Array>
                        <mxPoint x="290" y="140" as="sourcePoint"/>
                    </mxGeometry>
                </mxCell>
                <mxCell id="40" style="edgeStyle=orthogonalEdgeStyle;html=1;" parent="1" target="37" edge="1">
                    <mxGeometry relative="1" as="geometry">
                        <Array as="points">
                            <mxPoint x="320" y="402"/>
                            <mxPoint x="320" y="273"/>
                        </Array>
                        <mxPoint x="290" y="402" as="sourcePoint"/>
                    </mxGeometry>
                </mxCell>
                <mxCell id="42" style="edgeStyle=orthogonalEdgeStyle;html=1;" parent="1" source="37" edge="1">
                    <mxGeometry relative="1" as="geometry">
                        <Array as="points">
                            <mxPoint x="470" y="273"/>
                            <mxPoint x="470" y="402"/>
                        </Array>
                        <mxPoint x="490" y="402" as="targetPoint"/>
                    </mxGeometry>
                </mxCell>
                <mxCell id="43" style="edgeStyle=orthogonalEdgeStyle;html=1;" parent="1" source="37" edge="1">
                    <mxGeometry relative="1" as="geometry">
                        <Array as="points">
                            <mxPoint x="470" y="273"/>
                            <mxPoint x="470" y="140"/>
                        </Array>
                        <mxPoint x="490" y="140" as="targetPoint"/>
                    </mxGeometry>
                </mxCell>
                <mxCell id="37" value="NLB" style="sketch=0;outlineConnect=0;fontColor=#232F3E;gradientColor=none;fillColor=#4D27AA;strokeColor=none;dashed=0;verticalLabelPosition=bottom;verticalAlign=top;align=center;html=1;fontSize=12;fontStyle=0;aspect=fixed;pointerEvents=1;shape=mxgraph.aws4.network_load_balancer;" parent="1" vertex="1">
                    <mxGeometry x="392" y="259" width="28" height="28" as="geometry"/>
                </mxCell>
                <mxCell id="41" value="" style="edgeStyle=none;html=1;endArrow=none;" parent="1" target="37" edge="1">
                    <mxGeometry relative="1" as="geometry">
                        <mxPoint x="290" y="272.08875739644975" as="sourcePoint"/>
                        <mxPoint x="460" y="272" as="targetPoint"/>
                    </mxGeometry>
                </mxCell>
                <mxCell id="7" value="PrivateLink" style="sketch=0;points=[[0,0,0],[0.25,0,0],[0.5,0,0],[0.75,0,0],[1,0,0],[0,1,0],[0.25,1,0],[0.5,1,0],[0.75,1,0],[1,1,0],[0,0.25,0],[0,0.5,0],[0,0.75,0],[1,0.25,0],[1,0.5,0],[1,0.75,0]];outlineConnect=0;fontColor=#232F3E;gradientColor=#945DF2;gradientDirection=north;fillColor=#5A30B5;strokeColor=#ffffff;dashed=0;verticalLabelPosition=bottom;verticalAlign=top;align=center;html=1;fontSize=12;fontStyle=0;aspect=fixed;shape=mxgraph.aws4.resourceIcon;resIcon=mxgraph.aws4.vpc_privatelink;" parent="1" vertex="1">
                    <mxGeometry x="340" y="253" width="40" height="40" as="geometry"/>
                </mxCell>
                <mxCell id="7cmFn_rzQednwjibu70_-43" value="" style="shape=flexArrow;endArrow=classic;html=1;" parent="1" edge="1">
                    <mxGeometry width="50" height="50" relative="1" as="geometry">
                        <mxPoint x="200" y="530" as="sourcePoint"/>
                        <mxPoint x="760" y="530" as="targetPoint"/>
                    </mxGeometry>
                </mxCell>
                <mxCell id="7cmFn_rzQednwjibu70_-44" value="AWS上の新システムからオンプレ環境への下り通信" style="edgeLabel;html=1;align=center;verticalAlign=middle;resizable=0;points=[];" parent="7cmFn_rzQednwjibu70_-43" vertex="1" connectable="0">
                    <mxGeometry x="0.7143" y="1" relative="1" as="geometry">
                        <mxPoint x="-220" y="-19" as="offset"/>
                    </mxGeometry>
                </mxCell>
                <mxCell id="quVh0VFz0NKPyISK7NSU-43" value="On-premise" style="sketch=0;outlineConnect=0;fontColor=#232F3E;gradientColor=none;fillColor=#232F3D;strokeColor=none;dashed=0;verticalLabelPosition=bottom;verticalAlign=top;align=center;html=1;fontSize=12;fontStyle=0;aspect=fixed;pointerEvents=1;shape=mxgraph.aws4.traditional_server;" parent="1" vertex="1">
                    <mxGeometry x="803.54" y="253" width="21.92" height="38" as="geometry"/>
                </mxCell>
                <mxCell id="quVh0VFz0NKPyISK7NSU-49" style="edgeStyle=orthogonalEdgeStyle;html=1;startArrow=none;" parent="1" source="quVh0VFz0NKPyISK7NSU-44" target="quVh0VFz0NKPyISK7NSU-43" edge="1">
                    <mxGeometry relative="1" as="geometry"/>
                </mxCell>
                <mxCell id="quVh0VFz0NKPyISK7NSU-47" value="" style="edgeStyle=orthogonalEdgeStyle;html=1;endArrow=none;" parent="1" target="6" edge="1">
                    <mxGeometry relative="1" as="geometry">
                        <mxPoint x="520" y="272" as="sourcePoint"/>
                        <mxPoint x="723.7338084840924" y="260" as="targetPoint"/>
                    </mxGeometry>
                </mxCell>
                <mxCell id="quVh0VFz0NKPyISK7NSU-54" value="" style="edgeStyle=orthogonalEdgeStyle;html=1;endArrow=none;" parent="1" source="6" target="quVh0VFz0NKPyISK7NSU-44" edge="1">
                    <mxGeometry relative="1" as="geometry">
                        <mxPoint x="679" y="272" as="sourcePoint"/>
                        <mxPoint x="803.54" y="272" as="targetPoint"/>
                    </mxGeometry>
                </mxCell>
                <mxCell id="quVh0VFz0NKPyISK7NSU-55" style="edgeStyle=orthogonalEdgeStyle;html=1;" parent="1" target="quVh0VFz0NKPyISK7NSU-44" edge="1">
                    <mxGeometry relative="1" as="geometry">
                        <Array as="points">
                            <mxPoint x="580" y="140"/>
                            <mxPoint x="580" y="272"/>
                        </Array>
                        <mxPoint x="520" y="140" as="sourcePoint"/>
                    </mxGeometry>
                </mxCell>
                <mxCell id="quVh0VFz0NKPyISK7NSU-56" style="edgeStyle=orthogonalEdgeStyle;html=1;" parent="1" target="quVh0VFz0NKPyISK7NSU-44" edge="1">
                    <mxGeometry relative="1" as="geometry">
                        <Array as="points">
                            <mxPoint x="580" y="402"/>
                            <mxPoint x="580" y="272"/>
                        </Array>
                        <mxPoint x="520" y="402" as="sourcePoint"/>
                    </mxGeometry>
                </mxCell>
                <mxCell id="6" value="Direct Connect" style="sketch=0;points=[[0,0,0],[0.25,0,0],[0.5,0,0],[0.75,0,0],[1,0,0],[0,1,0],[0.25,1,0],[0.5,1,0],[0.75,1,0],[1,1,0],[0,0.25,0],[0,0.5,0],[0,0.75,0],[1,0.25,0],[1,0.5,0],[1,0.75,0]];outlineConnect=0;fontColor=#232F3E;gradientColor=#945DF2;gradientDirection=north;fillColor=#5A30B5;strokeColor=#ffffff;dashed=0;verticalLabelPosition=bottom;verticalAlign=top;align=center;html=1;fontSize=12;fontStyle=0;aspect=fixed;shape=mxgraph.aws4.resourceIcon;resIcon=mxgraph.aws4.direct_connect;" parent="1" vertex="1">
                    <mxGeometry x="640" y="252.5" width="39" height="39" as="geometry"/>
                </mxCell>
                <mxCell id="50" value="ENI" style="sketch=0;outlineConnect=0;fontColor=#232F3E;gradientColor=none;fillColor=#4D27AA;strokeColor=none;dashed=0;verticalLabelPosition=bottom;verticalAlign=top;align=center;html=1;fontSize=12;fontStyle=0;aspect=fixed;pointerEvents=1;shape=mxgraph.aws4.elastic_network_interface;" parent="1" vertex="1">
                    <mxGeometry x="260" y="257" width="30" height="30" as="geometry"/>
                </mxCell>
            </root>
        </mxGraphModel>
    </diagram>
</mxfile>